# xmcd
#
# Track frame offsets:
#	150
#	4838
#	22332
#	37974
#	52084
#	76726
#	89646
#	112392
#	125875
#	139163
#	160938
#	180415
#	194554
#	206205
#	222536
#
# Disc length: 3189 seconds
#
# Revision: 0
# Processed by: cddbd v1.4PL0 Copyright (c) Steve Scherf et al.
# Submitted via: audiograbber 1.81.01
#
DISCID=ea0c730f
DTITLE=Lonesome Hank and the Heartaches - A Night Out with
DYEAR=2003
DGENRE=Blues
TTITLE0=Intro by Lindsey Shannon
TTITLE1=Big Leg Woman
TTITLE2=Keep It To Yourself
TTITLE3=Thirteen Women
TTITLE4=Tip On In - Scratch My Back
TTITLE5=Big Ten Inch
TTITLE6=Iko Iko
TTITLE7=When The Lights Go Out
TTITLE8=Pink Thunderbird
TTITLE9=Fools Paradise
TTITLE10=Cherry Pink and Apple Blossom White
TTITLE11=Tell Me Mama
TTITLE12=Baby Drives Me Wild
TTITLE13=Rock-A-Beatin Boogie
TTITLE14=Pretty Thing
EXTD=
EXTT0=
EXTT1=
EXTT2=
EXTT3=
EXTT4=
EXTT5=
EXTT6=
EXTT7=
EXTT8=
EXTT9=
EXTT10=
EXTT11=
EXTT12=
EXTT13=
EXTT14=
PLAYORDER=
